<svg xmlns="http://www.w3.org/2000/svg" width="21" height="23"><path fill="#fff" d="M20.244 13.112c-.621 5.316-4.464 5.829-5.143 6.058-.293.099-2.876.772-6.239.478-2.01 2.422-2.303 2.837-2.95 2.626-.565-.18-.532-1.072-.532-1.072l.005-2.203H5.38C.467 17.557.536 12.24.593 9.402c.058-2.837.586-5.129 2.083-6.69C6.01-.481 15.42-.085 18.207 2.592c1.726 1.567 2.683 5.032 2.037 10.52zm-11.05 4.987c2.851.192 5.122-.397 5.367-.48.573-.191 3.686-.473 4.215-4.91-.006-.222.909-6.712-1.661-9.01-2.102-1.992-10.353-2.61-13.278.155C2.569 5.161 2.139 7.101 2.094 9.47c-.045 2.369-.29 6.896 3.875 8.1 0 0-.016 3.362-.016 3.656-.004.448.234.47.45.244.662-.695 2.79-3.371 2.79-3.371zM10.37 4.374c3.016.021 5.442 2.194 5.47 5.94h.002c.004.368-.529.372-.529.005-.024-3.477-2.246-5.373-4.943-5.394-.347-.004-.347-.55 0-.55zm3.548 5.369c.042-1.81-1.043-3.226-3.102-3.384-.346-.025-.31-.576.037-.55 2.374.179 3.638 1.88 3.593 3.947-.004.366-.536.35-.528-.013zm-.569 2.35c.602.354 1.367.905 1.875 1.404.286.243.351.615.155 1.007v.006c-.441.812-1.269 1.708-2.12 1.422l-.007-.013c-.864-.252-2.897-1.345-4.182-2.411-2.735-2.255-3.592-5.239-4.06-6.175-.273-.887.582-1.75 1.363-2.21h.008c.376-.205.737-.137.978.166.228.323.677.742 1.345 1.96.25.465.095.939-.15 1.135l-.492.41c-.25.208-.216.597-.216.597s.728 2.872 3.45 3.598c0 0 .373.034.572-.226l.393-.513c.188-.255.642-.418 1.088-.157zM11.226 7.84c-.35-.021-.318-.572.03-.551 1.14.063 1.774.746 1.832 1.972.017.367-.512.392-.528.025-.045-.938-.466-1.395-1.334-1.446z"/></svg>