<svg xmlns="http://www.w3.org/2000/svg" width="1240" height="160"><defs><clipPath id="25eta"><path fill="#fff" d="M12 0h1216c6.627 0 12 5.372 12 12l-20 136c0 6.628-5.373 12-12 12H32c-6.627 0-12-5.372-12-12L0 12C0 5.372 5.373 0 12 0z"/></clipPath></defs><path fill="none" stroke="#fff" stroke-miterlimit="20" stroke-width="2" d="M12 0h1216c6.627 0 12 5.372 12 12l-20 136c0 6.628-5.373 12-12 12H32c-6.627 0-12-5.372-12-12L0 12C0 5.372 5.373 0 12 0z" clip-path="url(&quot;#25eta&quot;)" opacity=".3"/><path fill="#fff" d="M864 1h1v158h-1zM460 1h1v158h-1z" opacity=".3"/></svg>