<svg xmlns="http://www.w3.org/2000/svg" width="26" height="26"><path fill="#e5de05" d="M13 0c7.18 0 13 5.821 13 13 0 7.181-5.82 13-13 13S0 20.181 0 13C0 5.82 5.82 0 13 0z"/><path fill="#807b03" d="M19.075 12.998A6.08 6.08 0 0113 19.073a6.08 6.08 0 01-6.075-6.075A6.08 6.08 0 0113 6.924a6.08 6.08 0 016.075 6.074zm-1.292 0A4.79 4.79 0 0013 8.215a4.79 4.79 0 00-4.782 4.783A4.79 4.79 0 0013 17.783a4.79 4.79 0 004.783-4.785zm-1.117.314a.498.498 0 01-.5.497h-3.23a.498.498 0 01-.5-.497V9.528c0-.277.223-.505.5-.505.276 0 .5.228.5.505v3.283h2.73c.276 0 .5.226.5.5z"/></svg>