<svg xmlns="http://www.w3.org/2000/svg" width="21" height="21"><path fill="#fff" d="M20.711 10.502c0 2.77-.012 3.12-.06 4.209-.048 1.084-.223 1.828-.474 2.479a5.217 5.217 0 01-2.99 2.984c-.646.257-1.392.427-2.477.477-1.09.046-1.437.056-4.21.056-2.773 0-3.12-.01-4.21-.056-1.085-.05-1.827-.22-2.478-.477A5.08 5.08 0 012.005 19a5.103 5.103 0 01-1.181-1.81c-.252-.65-.427-1.395-.475-2.48-.048-1.089-.06-1.438-.06-4.208 0-2.778.012-3.12.064-4.213C.4 5.201.576 4.46.828 3.812a5.029 5.029 0 011.177-1.81A5.01 5.01 0 013.816.824C4.463.571 5.21.395 6.294.344c1.09-.045 1.437-.057 4.21-.057 2.773 0 3.12.012 4.214.065 1.085.047 1.827.222 2.478.474a5.03 5.03 0 011.807 1.176 5.017 5.017 0 011.181 1.812c.252.645.427 1.391.475 2.477.048 1.091.052 1.433.052 4.21zm-1.831.008c0-2.722-.012-3.048-.06-4.124-.044-1-.212-1.54-.351-1.897a3.207 3.207 0 00-.763-1.174 3.157 3.157 0 00-1.173-.76c-.359-.14-.897-.308-1.895-.352-1.073-.05-1.397-.06-4.126-.06-2.725 0-3.049.01-4.126.06-.993.044-1.536.213-1.895.352a3.187 3.187 0 00-1.173.76A3.124 3.124 0 002.55 4.49c-.14.357-.307.896-.35 1.897-.049 1.07-.06 1.402-.06 4.124 0 2.725.011 3.046.06 4.126.043.99.21 1.532.35 1.891.164.444.423.843.763 1.173.327.34.73.6 1.173.765.359.14.898.304 1.895.35 1.074.048 1.4.058 4.126.058 2.725 0 3.049-.01 4.126-.059.994-.045 1.536-.208 1.895-.349a3.395 3.395 0 001.94-1.94c.14-.358.307-.899.35-1.898.049-1.074.06-1.392.06-4.117zm-3.129-.008a5.249 5.249 0 01-5.247 5.248 5.248 5.248 0 010-10.495 5.249 5.249 0 015.247 5.247zm-1.843 0A3.402 3.402 0 0010.504 7.1a3.402 3.402 0 100 6.805 3.405 3.405 0 003.404-3.403zm3.276-5.456c0 .674-.549 1.225-1.225 1.225a1.225 1.225 0 111.225-1.225z" opacity=".5"/></svg>