<svg xmlns="http://www.w3.org/2000/svg" width="51" height="51"><path fill="#ff2a6d" d="M50.324 10.422c.364 8.698.237 17.514-.377 26.205a2.503 2.503 0 01-2.136 2.296c-.661.092-1.324.176-1.987.252v2.116a.737.737 0 01-1.476 0v-1.96c-1.7.163-3.403.27-5.107.325v1.635a.738.738 0 01-1.476 0v-1.602c-.36.005-.719.008-1.078.008h-.201v1.594a.737.737 0 01-1.476 0v-1.612a80.269 80.269 0 01-9.448-.756 2.504 2.504 0 01-2.136-2.296 241.67 241.67 0 01-.152-2.326 42.161 42.161 0 01-1.983 1.938l.793.792c.45.45.698 1.048.698 1.684 0 .636-.248 1.234-.698 1.683-.45.45-1.048.698-1.685.698a2.366 2.366 0 01-1.419-.468c-.804 1.164-2.493 3.546-4.321 5.724A15.078 15.078 0 019.094 50.5l-.05.022-.022.01c-.004 0-.007.002-.01.003a3.882 3.882 0 01-4.268-.832l-3.443-3.441a3.864 3.864 0 01-.798-4.349 14.862 14.862 0 013.015-4.504.738.738 0 011.058 1.028 13.4 13.4 0 00-2.72 4.065l-.024.056-.006.016a2.397 2.397 0 00.518 2.645l3.444 3.44c.7.7 1.74.904 2.648.519l.054-.023.016-.007a13.597 13.597 0 005.022-3.744c1.907-2.271 3.663-4.774 4.376-5.815l-6.482-6.478a84.21 84.21 0 00-4.69 3.452.735.735 0 01-1.037-.117.737.737 0 01.117-1.036 85.408 85.408 0 014.573-3.376 2.381 2.381 0 01.226-3.1 2.387 2.387 0 013.37 0l.793.792c.97-1.058 2-2.075 3.072-3.027a2.694 2.694 0 012.526-.572c.823-.862 1.656-1.722 2.498-2.576a230.88 230.88 0 01.036-8.646h-1.58a.738.738 0 110-1.475h1.618c.014-.467.029-.934.045-1.4h-1.663a.738.738 0 110-1.475h1.72c.093-2.283.22-4.562.38-6.83a2.503 2.503 0 012.136-2.295 80.25 80.25 0 0122.25 0 2.504 2.504 0 012.135 2.296c.093 1.321.17 2.546.234 3.745a.737.737 0 01-1.473.079c-.064-1.19-.14-2.408-.233-3.72a1.021 1.021 0 00-.868-.94 78.773 78.773 0 00-21.84 0c-.47.067-.835.461-.869.94a231.106 231.106 0 00-.376 6.725h.729a.738.738 0 110 1.475h-.785c-.017.466-.032.933-.045 1.4h.83a.737.737 0 110 1.475h-.87a232.245 232.245 0 00-.052 7.179 219.558 219.558 0 014.018-3.902 2.825 2.825 0 012.566-.71c.6-.597 1.222-1.203 1.857-1.804a1.67 1.67 0 011.314-.452 3.163 3.163 0 011.612-.948v-3.713l-3.77-2.036a3.184 3.184 0 01-2.378 1.066c-1.76 0-3.19-1.43-3.19-3.188a3.193 3.193 0 013.19-3.188 3.193 3.193 0 013.081 4.014l4.156 2.244a.737.737 0 01.387.649v4.153a3.195 3.195 0 012.453 3.102 3.193 3.193 0 01-3.19 3.188 3.197 3.197 0 01-2.326-1.01c-.183.187-.369.374-.556.562a2.82 2.82 0 01-.71 2.564 221.42 221.42 0 01-7.95 7.97 2.692 2.692 0 01-.233 2.044c.067 1.246.147 2.534.238 3.834.034.478.4.873.869.94a78.91 78.91 0 009.243.74v-.834a.738.738 0 011.475 0v.853c.427 0 .854-.002 1.28-.008v-.844a.737.737 0 011.476 0v.81a78.612 78.612 0 005.107-.331v-.48a.738.738 0 011.476 0v.321c.595-.07 1.189-.145 1.783-.228.47-.066.834-.46.868-.939.61-8.636.736-17.397.375-26.04a.737.737 0 011.474-.061zM31.263 6.397a1.716 1.716 0 00-3.43 0c0 .945.77 1.714 1.715 1.714.946 0 1.715-.769 1.715-1.714zm6.886 10.974A1.717 1.717 0 0035.404 16l.008.008c.565.654.542 1.62-.052 2.246l-.224.234a1.716 1.716 0 003.013-1.118zm-4.364-.633c-.516.489-1.023.98-1.516 1.467.193.174.378.358.552.55.505-.51.997-1.018 1.467-1.515a.2.2 0 00.006-.268 2.315 2.315 0 00-.24-.239.2.2 0 00-.269.005zm-4.423 2.515a219.11 219.11 0 00-7.704 7.663 31.526 31.526 0 012.445 2.443c2.617-2.5 5.194-5.086 7.67-7.698.48-.507.498-1.29.04-1.82a6.125 6.125 0 00-.63-.63 1.354 1.354 0 00-1.821.042zM21.04 39.356a.9.9 0 00.265-.641.9.9 0 00-.265-.64l-8.104-8.099a.904.904 0 00-1.282 0 .907.907 0 000 1.282l8.103 8.098a.905.905 0 001.283 0zm-.794-4.16a40.606 40.606 0 002.971-3.007 1.21 1.21 0 00.002-1.604 30.067 30.067 0 00-2.788-2.787 1.213 1.213 0 00-1.605.003 40.54 40.54 0 00-3.009 2.969zm27.21-17.825a3.194 3.194 0 01-2.452 3.1v6.935a3.194 3.194 0 012.453 3.101 3.193 3.193 0 01-3.19 3.189 3.193 3.193 0 01-3.191-3.189 3.194 3.194 0 012.452-3.101v-6.934a3.194 3.194 0 01-2.452-3.101 3.193 3.193 0 013.19-3.189c1.76 0 3.19 1.43 3.19 3.189zm-4.905 0a1.716 1.716 0 003.43 0 1.716 1.716 0 00-3.43 0zm1.715 11.423c-.946 0-1.715.768-1.715 1.713a1.716 1.716 0 003.43 0c0-.945-.77-1.713-1.715-1.713zm-4.642 1.713a3.193 3.193 0 01-3.19 3.188 3.193 3.193 0 01-3.191-3.188 3.193 3.193 0 013.19-3.188c1.76 0 3.19 1.43 3.19 3.188zm-1.476 0a1.716 1.716 0 00-3.43 0c0 .945.77 1.714 1.715 1.714.946 0 1.715-.769 1.715-1.714zm9.309-24.11a3.193 3.193 0 01-3.19 3.188 3.193 3.193 0 01-3.191-3.188 3.193 3.193 0 013.19-3.188c1.76 0 3.19 1.43 3.19 3.188zm-1.476 0a1.716 1.716 0 00-3.43 0 1.716 1.716 0 003.43 0z"/></svg>