<svg xmlns="http://www.w3.org/2000/svg" width="51" height="51"><path fill="#ff2a6d" d="M1.251 11.005a.736.736 0 11.28-1.446 130.03 130.03 0 0048.484.246.736.736 0 11.265 1.448c-1.074.197-2.15.38-3.225.55a229.73 229.73 0 01-2.134 5.267.736.736 0 11-1.357-.57 227.295 227.295 0 001.804-4.426c-3.505.51-7.053.888-10.579 1.129a211.17 211.17 0 006.077 9.465c.498-1.095.99-2.197 1.467-3.29a.736.736 0 111.348.588 231.368 231.368 0 01-2.02 4.498.736.736 0 01-1.273.11 212.434 212.434 0 01-7.28-11.311l-.345.017a221.038 221.038 0 01-6.407 12.018.736.736 0 01-.638.37h-.003a.736.736 0 01-.638-.375 221.923 221.923 0 01-6.319-12.083l-.347-.02a211.366 211.366 0 01-7.362 11.234.736.736 0 01-1.273-.12 231.42 231.42 0 01-3.366-7.819.737.737 0 011.362-.557 229.884 229.884 0 002.814 6.587 210.234 210.234 0 006.148-9.403c-3.524-.277-7.07-.691-10.573-1.236.142.368.285.734.427 1.097a.736.736 0 01-1.37.538 242.7 242.7 0 01-.743-1.922c-1.076-.181-2.15-.376-3.224-.584zm24.473 12.43a219.554 219.554 0 005.342-10.044c-3.527.117-7.085.1-10.61-.053a220.657 220.657 0 005.268 10.096zm24.29 7.815a.736.736 0 01.267 1.448c-1.075.198-2.15.38-3.226.551a229.923 229.923 0 01-5.393 12.66.736.736 0 01-1.274.11 212.389 212.389 0 01-7.279-11.311l-.346.018a221.033 221.033 0 01-3.337 6.483.735.735 0 11-1.297-.696 219.165 219.165 0 002.938-5.677c-3.527.117-7.086.099-10.611-.053a220.78 220.78 0 005.268 10.097c.305-.54.608-1.08.907-1.62a.736.736 0 111.286.715 217.69 217.69 0 01-1.561 2.768.735.735 0 01-.638.37h-.003a.736.736 0 01-.638-.375 221.925 221.925 0 01-6.319-12.082l-.347-.02A211.328 211.328 0 0111.05 45.87a.736.736 0 01-1.273-.12 230.65 230.65 0 01-5.3-12.715c-1.076-.182-2.15-.377-3.225-.585a.736.736 0 01.28-1.445 130.036 130.036 0 0048.484.245zm-33.28 3.307c-3.525-.277-7.071-.69-10.573-1.236a229.331 229.331 0 004.425 10.64 210.237 210.237 0 006.148-9.404zm24.132 9.556a228.705 228.705 0 004.502-10.594c-3.505.51-7.053.888-10.579 1.129a211.125 211.125 0 006.077 9.465zM34.271 23.19a.736.736 0 11-1.471 0v-.48a.736.736 0 111.471 0zm0 6.624v.481a.736.736 0 11-1.471 0v-.48a.736.736 0 111.471 0zm1.608-4.918a.736.736 0 01-.52-1.257l.34-.34a.736.736 0 111.04 1.042l-.34.34a.733.733 0 01-.52.215zm-5.027 5.024a.736.736 0 01-.52-1.257l.34-.34a.735.735 0 111.04 1.042l-.34.34a.734.734 0 01-.52.215zm6.479-2.682h-.481a.736.736 0 010-1.472h.481a.736.736 0 010 1.472zm-7.11 0h-.48a.736.736 0 010-1.472h.48a.736.736 0 010 1.472zm5.138 1.086a.736.736 0 011.04 0l.34.34a.737.737 0 01-1.04 1.041l-.34-.34a.737.737 0 010-1.041zm-3.646-3.644a.733.733 0 01-1.04.001l-.341-.34a.736.736 0 011.04-1.042l.34.34a.736.736 0 01.001 1.041zM19.051 2.634v-.481a.736.736 0 111.472 0v.48a.736.736 0 11-1.472 0zm0 7.105v-.481a.736.736 0 111.472 0v.48a.736.736 0 11-1.472 0zm2.56-5.615a.736.736 0 010-1.041l.34-.34a.736.736 0 111.04 1.042l-.34.34a.734.734 0 01-1.04-.001zm-3.647 3.643a.737.737 0 010 1.041l-.34.34a.733.733 0 01-1.041 0 .737.737 0 010-1.041l.34-.34a.736.736 0 011.041 0zm5.137-2.558h.481a.736.736 0 010 1.473h-.48a.736.736 0 010-1.473zm-7.845.737c0-.407.33-.737.736-.737h.481a.736.736 0 010 1.473h-.481a.736.736 0 01-.736-.736zm6.354 2.862a.737.737 0 011.04-1.041l.34.34a.737.737 0 01-1.04 1.041zm-5.026-5.023a.737.737 0 011.04-1.042l.34.34a.736.736 0 01-1.04 1.042zM37.04 6.21a1.138 1.138 0 010-1.998l1.86-1.016 1.016-1.859a1.137 1.137 0 011.996 0l1.016 1.859 1.858 1.016a1.138 1.138 0 010 1.998l-1.858 1.016-1.016 1.859a1.137 1.137 0 01-1.996 0L38.9 7.226zm1.242-.999l1.408.77c.19.105.347.262.452.453l.77 1.409.77-1.409c.105-.191.261-.348.452-.452l1.408-.77-1.408-.771a1.136 1.136 0 01-.452-.453l-.77-1.409-.77 1.41a1.15 1.15 0 01-.452.452zm-16.42 40.324a1.138 1.138 0 010 1.998l-1.857 1.016-1.016 1.859a1.137 1.137 0 01-1.996 0l-1.016-1.859-1.858-1.016a1.138 1.138 0 010-1.998l1.858-1.016 1.016-1.859a1.137 1.137 0 011.996 0l1.016 1.859zm-1.241.999l-1.408-.77a1.137 1.137 0 01-.452-.453l-.77-1.409-.77 1.409a1.141 1.141 0 01-.453.453l-1.408.77 1.408.77c.192.105.348.262.453.453l.77 1.409.77-1.41c.104-.19.26-.347.452-.451z"/></svg>