<svg xmlns="http://www.w3.org/2000/svg" width="51" height="51"><path fill="#ff2a6d" d="M22.805 13.692a.843.843 0 01.236-1.167l1.47-.978-1.473-.982a.838.838 0 11.932-1.394l2.518 1.677a.84.84 0 010 1.398l-2.518 1.677a.838.838 0 01-1.164-.231zm-5.905-.04l3.358-5.876.02-.035a.84.84 0 011.437.867l-3.357 5.876a.842.842 0 01-1.15.31.84.84 0 01-.308-1.142zm-.95 3.772a.84.84 0 01.839-.841h1.678a.84.84 0 010 1.68H16.79a.84.84 0 01-.84-.84zm0 3.356a.84.84 0 01.839-.839H28.54a.84.84 0 010 1.68H16.789a.84.84 0 01-.84-.84zm5.875-4.197h11.752a.84.84 0 010 1.68H21.825a.84.84 0 010-1.68zm12.592 4.197a.84.84 0 01-.84.84h-1.679a.84.84 0 010-1.679h1.68a.84.84 0 01.839.84zm-18.468 3.358c0-.464.376-.839.84-.839h1.678a.839.839 0 110 1.68H16.79a.84.84 0 01-.84-.841zm18.468 0a.84.84 0 01-.84.841H21.825a.84.84 0 010-1.68h11.752c.464 0 .84.375.84.839zM50.366 41.63v1.813a2.529 2.529 0 01-2.518 2.52h-5.876v.141a2.49 2.49 0 01-.74 1.782l-.696.697a.824.824 0 00-.243.594v.983a.84.84 0 01-1.68 0v-.983a2.481 2.481 0 01.74-1.778l.696-.697a.834.834 0 00.244-.598v-8.117a.419.419 0 00-.84 0v2.939a.84.84 0 01-1.679 0v-4.618a.418.418 0 00-.42-.417.418.418 0 00-.42.417v4.618a.84.84 0 01-1.678 0V35.47a.42.42 0 00-.84 0v5.457a.84.84 0 01-1.678 0v-4.618a.418.418 0 00-.42-.417.418.418 0 00-.42.417v7.135a.84.84 0 11-1.678 0v-2.517h-.42a.42.42 0 00-.42.419v4.759a.833.833 0 00.244.598l.696.697a2.48 2.48 0 01.739 1.778v.983a.84.84 0 01-1.679 0v-.983a.824.824 0 00-.243-.594l-.697-.697a2.49 2.49 0 01-.739-1.782v-.14h-5.036v.14a2.491 2.491 0 01-.739 1.782l-.697.697a.824.824 0 00-.243.594v.983a.84.84 0 01-1.679 0v-.983a2.481 2.481 0 01.739-1.778l.696-.697a.833.833 0 00.244-.598v-4.759a.42.42 0 00-.42-.42h-.42v2.518a.84.84 0 11-1.678 0v-7.135a.418.418 0 00-.42-.417.418.418 0 00-.42.417v4.618a.84.84 0 01-1.679 0V35.47a.42.42 0 00-.84 0v5.457a.84.84 0 01-1.678 0v-4.618a.418.418 0 00-.42-.417.418.418 0 00-.42.417v4.618a.84.84 0 01-1.678 0v-2.94a.419.419 0 00-.84 0v8.118a.834.834 0 00.244.598l.697.697c.475.47.742 1.11.738 1.778v.983a.84.84 0 01-1.679 0v-.983a.823.823 0 00-.243-.594l-.697-.697a2.491 2.491 0 01-.739-1.782v-.14H2.518A2.529 2.529 0 010 43.444V41.63l3.358-10.073V3.152A2.527 2.527 0 015.876.633H44.49a2.527 2.527 0 012.518 2.52v28.405zM5.036 30.853H45.33v-27.7a.84.84 0 00-.84-.842H5.877a.84.84 0 00-.84.841zm3.358 11.752H1.68v.839a.84.84 0 00.84.841h5.875zm19.307 0h-5.036v1.68H27.7zm14.27-4.617v2.939h6.389l-2.796-8.397H4.802l-2.796 8.397h6.388v-2.94c0-1.16.94-2.095 2.099-2.095.152-.003.305.014.453.048a2.1 2.1 0 012.065-1.729c.256 0 .51.048.747.143a2.089 2.089 0 013.542 0c.239-.095.492-.143.748-.143 1.159 0 2.098.939 2.098 2.098v2.938h.42a2.1 2.1 0 012.057 1.68h5.12a2.1 2.1 0 012.057-1.68h.42V36.31c0-1.16.94-2.098 2.098-2.098.256 0 .51.048.747.143a2.089 2.089 0 013.542 0c.238-.095.492-.143.748-.143a2.1 2.1 0 012.065 1.73c.148-.035.3-.052.453-.049 1.159 0 2.099.936 2.099 2.096zm6.716 4.617h-6.715v1.68h5.876a.84.84 0 00.839-.841zM43.65 4.832v23.505a.837.837 0 01-.839.836H7.555a.837.837 0 01-.84-.836V4.832c0-.466.376-.84.84-.84H42.81c.464 0 .84.374.84.84zm-1.678.84H8.394v21.824h33.578zM8.394 35.053a.84.84 0 01-.84.84h-.839a.84.84 0 010-1.681h.84a.84.84 0 01.84.84zm-.84 3.358a.839.839 0 01-.839.837h-.839a.839.839 0 110-1.677h.84c.463 0 .839.374.839.84zm34.418-3.359c0-.465.375-.84.839-.84h.84a.84.84 0 010 1.681h-.84a.84.84 0 01-.84-.84zm2.518 2.52a.838.838 0 110 1.676h-.84a.839.839 0 110-1.677zm-20.146-2.52a.84.84 0 01-.84.841h-.84a.84.84 0 010-1.681h.84a.84.84 0 01.84.84zm4.197 0a.84.84 0 01-.84.841h-.84a.84.84 0 010-1.681h.84a.84.84 0 01.84.84zm-4.197 3.359a.839.839 0 01-.84.837h-.84a.839.839 0 110-1.677h.84c.464 0 .84.374.84.84zm4.197 0a.839.839 0 01-.84.837h-.84a.839.839 0 110-1.677h.84c.464 0 .84.374.84.84zM15.808 13.692a.838.838 0 01-1.164.231l-2.518-1.677a.84.84 0 010-1.398l2.518-1.677a.838.838 0 11.932 1.394l-1.474.982 1.471.978a.843.843 0 01.236 1.167z"/></svg>