<svg xmlns="http://www.w3.org/2000/svg" width="44" height="51"><path fill="#ff2a6d" d="M42.646 4.003c-.735.777-1.48 1.543-2.222 2.285a3.249 3.249 0 01-.796 3.028c-.553.585-1.06 1.117-1.55 1.626a.736.736 0 01-1.043.018.74.74 0 01-.019-1.044c.488-.505.992-1.034 1.542-1.615.63-.666.653-1.692.054-2.387a7.496 7.496 0 00-.772-.773 1.768 1.768 0 00-2.381.055 263.425 263.425 0 00-9.348 9.327 37.534 37.534 0 013.135 3.14 256.278 256.278 0 005.725-5.644.74.74 0 011.05 1.036 257.892 257.892 0 01-5.987 5.896 3.087 3.087 0 01-.629 2.98 50.289 50.289 0 01-3.735 3.785l1.059 1.061c.512.513.793 1.194.793 1.92 0 .724-.281 1.406-.793 1.918a2.69 2.69 0 01-1.916.795 2.686 2.686 0 01-1.735-.629c-.921 1.343-3.003 4.303-5.263 7a17.934 17.934 0 01-6.62 4.946l-.09.038a4.495 4.495 0 01-4.96-.968l-1.44-1.44a5.816 5.816 0 00.655 7.458 5.775 5.775 0 004.115 1.708 5.776 5.776 0 004.114-1.707l15.846-15.871a5.874 5.874 0 018.303 0 5.848 5.848 0 011.72 4.159 5.84 5.84 0 01-1.72 4.158l-6.426 6.437a.737.737 0 01-1.043 0 .74.74 0 010-1.045l6.427-6.436a4.378 4.378 0 001.287-3.114 4.399 4.399 0 00-7.506-3.115L14.632 48.86A7.241 7.241 0 019.475 51a7.24 7.24 0 01-5.157-2.14 7.291 7.291 0 01-.67-9.56l-1.634-1.637a4.509 4.509 0 01-.968-4.963l.04-.093c.358-.836.79-1.66 1.284-2.445a.737.737 0 111.248.787c-.453.72-.849 1.475-1.177 2.242l-.04.09a3.036 3.036 0 00.656 3.338l4.13 4.135a3.02 3.02 0 003.336.655l.085-.036a16.452 16.452 0 006.077-4.541c2.355-2.81 4.517-5.915 5.326-7.103l-7.946-7.959c-1.186.811-4.286 2.977-7.092 5.334a16.631 16.631 0 00-1.65 1.593.735.735 0 01-1.04.054.74.74 0 01-.054-1.043 18.111 18.111 0 011.796-1.735c2.693-2.262 5.648-4.348 6.99-5.271a2.72 2.72 0 01.164-3.657 2.71 2.71 0 013.832 0l1.06 1.061a49.935 49.935 0 013.779-3.741 3.074 3.074 0 012.974-.63 264.895 264.895 0 019.62-9.61 3.237 3.237 0 013.024-.797 117.28 117.28 0 012.282-2.225 1.854 1.854 0 012.497-.057c.163.14.316.294.456.457a1.861 1.861 0 01-.057 2.5zM26.048 28.696c0-.33-.129-.64-.362-.874l-9.717-9.733a1.23 1.23 0 00-.874-.362c-.316 0-.632.12-.873.362a1.24 1.24 0 000 1.75l9.717 9.732a1.235 1.235 0 002.109-.875zm2.259-9.868a36.067 36.067 0 00-3.358-3.363 1.603 1.603 0 00-2.12.003 48.492 48.492 0 00-3.715 3.683l5.512 5.52a48.851 48.851 0 003.677-3.72 1.61 1.61 0 00.003-2.123zm13.28-16.361a2.938 2.938 0 00-.303-.304.386.386 0 00-.52.011 122.44 122.44 0 00-1.932 1.875c.31.27.603.564.871.873a117.38 117.38 0 001.872-1.935.387.387 0 00.013-.52zM29.98 15.443a.739.739 0 010-1.044l1.112-1.114a.737.737 0 111.043 1.045l-1.112 1.113a.735.735 0 01-1.043 0zm.503-3.813a.74.74 0 010 1.045l-1.112 1.113a.734.734 0 01-1.043 0 .74.74 0 010-1.044l1.112-1.114a.737.737 0 011.043 0z"/></svg>