<svg xmlns="http://www.w3.org/2000/svg" width="50" height="50"><path fill="#ff2a6d" d="M5.666 20.983h1.612v1.612H5.666zm3.225 0h1.612v1.612H8.891zm3.224 0h1.612v1.612h-1.612zm37.888-1.612v4.836c0 .89-.723 1.612-1.612 1.612h-4.837a1.614 1.614 0 01-1.612-1.612h-10.48v1.612c0 .89-.723 1.612-1.612 1.612v8.06c0 .89-.723 1.613-1.612 1.613h-1.612c-.89 0-1.613-.723-1.613-1.612v-8.06H21.79v17.732a2.421 2.421 0 01-2.419 2.418h-4.03A2.42 2.42 0 0112.92 50H.023l.015-5.793 2.23-11.729a6.745 6.745 0 00-.82-4.82L.346 25.811a2.419 2.419 0 01-.343-1.25l.016-4.393a2.423 2.423 0 012.418-2.41h.812v-3.224h5.24l2.418 3.224h6.046v-1.612h2.418v-1.612h-5.643a4.035 4.035 0 01-4.03-4.03V4.432l5.745-3.83 2.65 2.649h12.161l4.754 6.337a2.426 2.426 0 01-.986 3.692l-4.17 1.786v1.081c.888 0 1.611.723 1.611 1.612v1.612h10.48c0-.889.723-1.612 1.612-1.612h4.837c.89 0 1.612.723 1.612 1.612zM11.31 7.387l5.184-3.456-1.256-1.256-3.928 2.619zm8.699 5.536l5.782-2.53.646 1.478-5.453 2.385v1.891h7.255v-2.143l5.147-2.206a.815.815 0 00.332-1.243l-1.056-1.408-4.64 2.03-.646-1.477 4.292-1.877-2.22-2.96H18.003l-6.694 4.461v1.18a2.421 2.421 0 002.418 2.419zM4.86 17.759h4.03l-1.209-1.612H4.86zm-3.245 6.448h15.337v-4.836H2.436a.807.807 0 00-.806.803zm.188 19.345h9.582l.24-2.418H7.277v-1.612h4.505l.24-2.418H7.278v-1.612h4.903l.24-2.419H7.278v-1.612h5.302l.041-.417a4.024 4.024 0 014.01-3.613h.32V25.82H2.229l.605 1.01a8.353 8.353 0 011.016 5.961zM16.63 29.043c-1.24 0-2.274.93-2.404 2.165l-.105 1.06h1.219c.889 0 1.612-.724 1.612-1.613v-1.612zM13.727 45.97a.807.807 0 00-.806-.806H1.636v3.224H12.92c.445 0 .806-.36.806-.806zm6.45-18.539h-1.613v3.224a3.227 3.227 0 01-3.224 3.225h-1.38l-.957 9.68a2.417 2.417 0 012.336 2.41h4.03c.445 0 .807-.36.807-.806zm8.06 6.449h-1.611v1.612h1.612zm0-3.225h-1.611v1.613h1.612zm0-3.224h-1.611v1.612h1.612zm1.613-9.672h-8.06v3.224h-1.612V17.76h-1.613v8.06h1.613v-3.224h1.612v3.224h8.061zm12.092 3.224h-10.48v1.612h10.48zm6.45 3.224l-.001-4.836h-4.837v4.836z"/></svg>