<svg xmlns="http://www.w3.org/2000/svg" width="51" height="48"><path fill="#ff2a6d" d="M48.126 4.205A2.366 2.366 0 0150.49 6.57v11.394a3.995 3.995 0 01-3.99 3.992h-2.678l-1.179 4.72a2.36 2.36 0 01-2.292 1.791h-7.542l-1.158 3.71a3.973 3.973 0 01-3.808 2.801h-8.38l-1.522 8.328a3.971 3.971 0 01-1.113 2.16l-1.84 1.841a2.364 2.364 0 01-2.32.602l-9.646-2.756a2.363 2.363 0 01-1.592-1.526l-1.006-3.02a4.017 4.017 0 01.015-2.568L4.15 27.63a5.808 5.808 0 00-.294-4.464l-3.218-6.44a4.004 4.004 0 01.25-4l4.493-6.744a3.98 3.98 0 013.32-1.778h1.276V2.5c0-.855.695-1.55 1.55-1.55h6.645c.632 0 1.225.246 1.671.692l2.561 2.563H35.89a.736.736 0 010 1.474H8.7c-.843 0-1.626.419-2.094 1.121l-.44.66H9.24a.737.737 0 010 1.474H5.185l-3.071 4.611c-.5.75-.56 1.717-.157 2.524l2.205 4.413h41.601V16.26H41.62a3.18 3.18 0 01-3.177-3.178 3.181 3.181 0 013.177-3.179h4.143V5.68h-6.928a.736.736 0 010-1.474h2.048V2.473c0-.84.683-1.523 1.522-1.523h1.682c.84 0 1.522.683 1.522 1.523v1.732zm-36.675 0h8.872l-1.52-1.52a.885.885 0 00-.63-.262h-6.646a.077.077 0 00-.076.077zm37.565 10.58v-3.41h-4.718a3.16 3.16 0 01.498 1.706 3.16 3.16 0 01-.498 1.704zm-6.66-10.58h1.78V2.473a.05.05 0 00-.049-.05h-1.682a.05.05 0 00-.049.05zm4.88 5.697h1.78V6.57c0-.491-.4-.891-.89-.891h-.89zm-5.616 4.883a1.706 1.706 0 000-3.409 1.706 1.706 0 000 3.41zm-13.335 7.84a1.591 1.591 0 00-1.305-.669h-3.936l1.145 4.584a1.54 1.54 0 01-.282 1.33 1.54 1.54 0 01-1.222.597h-2.74l-.11 1.782h5.973a.889.889 0 00.844-.61l1.854-5.564a1.593 1.593 0 00-.221-1.45zm-7.933-.669l-.314 5.037h2.647c.01 0 .038 0 .061-.03.023-.029.016-.056.014-.065l-1.235-4.942zm-4.566 22.469c.02-.02.038-.041.057-.062L1.825 40.155l1 3.006a.89.89 0 00.6.574l9.647 2.757a.89.89 0 00.875-.227zm2.33-10.273l.76-12.196H4.9l.275.552c.866 1.734 1 3.78.366 5.612L1.827 38.527c-.01.027-.016.055-.025.082l14.693 4.411zm13.446-6.637l.003-.008 1.733-5.551h-3.69c.478.778.588 1.707.295 2.585l-1.853 5.565a2.36 2.36 0 01-2.242 1.616h-6.066l-.11 1.782h8.21c1.106 0 2.072-.71 2.402-1.767zm10.741-5.559h-7.462l-1.573 5.037h7.082a.89.89 0 00.863-.674zm6.713-3.992v-1.705h-1.78v4.113a2.523 2.523 0 001.78-2.408zm-31.431-.919c.178.358.16.774-.05 1.114-.21.34-.573.542-.972.542H7.15a1.54 1.54 0 01-1.386-.858l-1.107-2.216a1.137 1.137 0 01.05-1.113c.21-.34.573-.542.972-.542h9.412a1.54 1.54 0 011.386.857zm-1.556.182l-.869-1.739a.076.076 0 00-.069-.043H6.212l.87 1.74a.075.075 0 00.068.042zM31.86 8.934H12.187a.736.736 0 010-1.473H31.86a.737.737 0 010 1.473zm-13.57 3.438a1.137 1.137 0 01.05-1.113c.21-.34.574-.543.973-.543h2.477c.59 0 1.121.329 1.386.857l2.734 5.472c.178.358.16.774-.05 1.113-.21.34-.573.543-.972.543H22.41a1.54 1.54 0 01-1.386-.858zm1.557-.182l2.495 4.994c.014.027.04.043.07.043h1.942l-2.496-4.994a.076.076 0 00-.068-.043zm9.884 6.51a1.54 1.54 0 01-1.386-.856l-2.734-5.472a1.138 1.138 0 01.05-1.113c.21-.34.573-.543.972-.543h2.476c.591 0 1.122.329 1.387.858l2.734 5.471c.178.358.16.774-.05 1.113-.21.34-.574.543-.973.543zm-2.565-6.51l2.496 4.994c.013.027.04.043.069.043h1.943l-2.496-4.994a.076.076 0 00-.069-.043zm8.837 12.285c0-.407.33-.737.737-.737h1.626a.737.737 0 010 1.474H36.74a.737.737 0 01-.737-.737zm-20.095 4.689c.21.34.229.755.05 1.113l-3.002 6.007a1.138 1.138 0 01-1.284.602 1.14 1.14 0 01-.881-1.113V33.35H8.119c-.4 0-.763-.202-.972-.542a1.137 1.137 0 01-.05-1.113l3.002-6.008a1.138 1.138 0 011.284-.602c.519.123.88.58.88 1.114v2.422h2.673c.4 0 .763.203.972.543zm-1.505.93h-2.469c-.63 0-1.143-.512-1.143-1.143v-1.355l-2.139 4.28h2.469c.63 0 1.143.514 1.143 1.144v1.355z"/></svg>