<svg xmlns="http://www.w3.org/2000/svg" width="50" height="49"><path fill="#ff2a6d" d="M48.403 6.993c.889 0 1.612.722 1.612 1.613v38.008c0 .89-.723 1.618-1.612 1.618H7.257a1.618 1.618 0 01-1.612-1.618v-3.549a.733.733 0 111.465 0v3.55c0 .082.066.147.147.147h30.811V30.175H7.11V39.5a.732.732 0 11-1.465 0V27.88c0-.89.723-1.615 1.612-1.615h30.646c.777 0 1.429.547 1.591 1.278h5.605c.404 0 .732.329.732.734v2.446a.733.733 0 01-.732.732h-5.565v1.53h5.565a.73.73 0 01.732.732v2.444a.733.733 0 01-.732.733h-5.565v9.87h8.869a.147.147 0 00.147-.149v-35.71h-9.016v1.732h5.565c.404 0 .732.33.732.737v2.442a.733.733 0 01-.732.734h-5.565v2.162h5.565c.404 0 .732.328.732.732v5a.733.733 0 01-.732.734h-14.62a.733.733 0 01-.733-.734V22.62h-2.76v1.204a.731.731 0 01-1.464 0V22.62H1.612A1.616 1.616 0 010 21.005V2.272C0 1.38.723.655 1.613.655H37.92c.89 0 1.613.725 1.613 1.617v4.72zm-8.87 27.458v.977h4.833v-.977zm4.833-5.44h-4.832v.977h4.832zM7.11 28.71h27.552v-.98H7.257a.147.147 0 00-.147.149zm30.958 0v-.811a.167.167 0 00-.165-.169h-1.775v.98zm-.147-26.587h-1.793V3.1h1.94v-.827a.147.147 0 00-.147-.149zM1.613 21.153h36.086a.37.37 0 00.37-.368V4.568h-9.74a.735.735 0 010-1.469h6.333v-.976H1.612a.147.147 0 00-.147.149v.827H24.96a.733.733 0 010 1.469H1.465v16.44c0 .08.066.145.148.145zm37.92-.976v.608A1.838 1.838 0 0137.7 22.62h-6.488v1.09h13.155v-3.534zm0-6.074v.979h4.833v-.979zm0-4.666h5.875v-.98h-5.874zm9.017 0v-.83a.148.148 0 00-.148-.15h-1.529v.98zm-22.372 32.38v-6.554h-.824a.733.733 0 010-1.467h1.557c.404 0 .732.329.732.732v7.29a.733.733 0 11-1.465 0zm-5.804.884a2.844 2.844 0 01-2.839-2.842v-3.37a2.843 2.843 0 012.84-2.842 2.843 2.843 0 012.838 2.842v3.37a2.844 2.844 0 01-2.839 2.842zm0-1.468c.757 0 1.374-.617 1.374-1.374v-3.37c0-.757-.617-1.377-1.374-1.377-.757 0-1.373.62-1.373 1.377v3.37c0 .757.616 1.374 1.373 1.374zm12.06 1.468a2.844 2.844 0 01-2.84-2.842v-3.37a2.844 2.844 0 012.84-2.842 2.843 2.843 0 012.838 2.842v3.37a2.844 2.844 0 01-2.839 2.842zm0-1.468c.757 0 1.373-.617 1.373-1.374v-3.37c0-.757-.616-1.377-1.374-1.377-.757 0-1.373.62-1.373 1.377v3.37c0 .757.616 1.374 1.373 1.374zm-19.689 1.468a2.844 2.844 0 01-2.839-2.842v-3.37a2.844 2.844 0 012.84-2.842 2.843 2.843 0 012.838 2.842v3.37a2.844 2.844 0 01-2.839 2.842zm0-1.468c.757 0 1.374-.617 1.374-1.374v-3.37c0-.757-.617-1.377-1.374-1.377-.757 0-1.373.62-1.373 1.377v3.37c0 .757.616 1.374 1.373 1.374zm3.641-33.419c.376.15.56.576.41.954l-3.194 8.036a.733.733 0 11-1.362-.542l3.195-8.038a.731.731 0 01.951-.41zm8.437 4.09a.734.734 0 01-.002 1.22l-5.192 3.481a.722.722 0 01-.407.126.735.735 0 01-.409-1.344l4.288-2.876-4.247-2.873a.733.733 0 11.82-1.214zm-14.581 3.483a.734.734 0 01-.816 1.218l-5.192-3.481a.734.734 0 01-.002-1.22l5.149-3.482a.732.732 0 11.82 1.216L5.955 12.51zm17.451-7.662c0-.405.328-.732.733-.732h4.357a.732.732 0 110 1.465h-4.357a.733.733 0 01-.733-.733zm.733 10.236a.733.733 0 010-1.464h4.357a.731.731 0 110 1.464zm-.733-7.02c0-.404.328-.731.733-.731h7.425a.732.732 0 110 1.464h-7.425a.733.733 0 01-.733-.734zm0 3.145c0-.405.328-.733.733-.733h7.425a.733.733 0 010 1.466h-7.425a.733.733 0 01-.733-.733z"/></svg>