<svg xmlns="http://www.w3.org/2000/svg" width="51" height="51"><path fill="#ff2a6d" d="M29.995 35.65a4.044 4.044 0 01-4.04 4.04 4.044 4.044 0 01-4.039-4.04 4.044 4.044 0 014.04-4.04 4.044 4.044 0 014.039 4.04zm-1.616 0a2.426 2.426 0 00-2.423-2.423 2.426 2.426 0 00-2.424 2.422 2.427 2.427 0 002.424 2.426 2.427 2.427 0 002.423-2.426zM25.148 4.141h6.463v1.616h-6.463zm0 3.23h6.463V8.99h-6.463zM20.3 10.609h11.31v1.614H20.3zm0 3.23h11.31v1.616H20.3zm0 3.232h11.31v1.614H20.3zm25.853 9.695v13.038a3.23 3.23 0 012.423 3.118 3.232 3.232 0 01-6.463 0 3.23 3.23 0 012.424-3.118v-3.346H39.69V46.3a2.422 2.422 0 011.615 2.275A2.428 2.428 0 0138.882 51a2.428 2.428 0 01-2.424-2.424c0-1.05.678-1.94 1.616-2.275v-9.844h-3.232v1.392l-1.984.661.935 1.87-3.109 3.109-1.87-.938-.66 1.987h-4.397l-.66-1.987-1.87.938-3.11-3.109.935-1.87-1.983-.661v-1.392h-3.232V46.3a2.422 2.422 0 011.616 2.275A2.428 2.428 0 0113.029 51a2.428 2.428 0 01-2.423-2.424c0-1.05.677-1.94 1.616-2.275v-9.844H7.374v3.346a3.23 3.23 0 012.424 3.118 3.232 3.232 0 01-6.463 0 3.23 3.23 0 012.423-3.118V26.765H.911V20.3h11.31v6.465H7.375v8.078h9.695v-1.39l1.983-.663-.935-1.868 3.11-3.11 1.87.934.66-1.981h1.39v-4.848H17.07v-9.695H7.374v4.511l1.853-1.85 1.142 1.141-3.803 3.802-3.802-3.802 1.142-1.14 1.852 1.85v-6.126h11.31V6.232L22.39.91h12.452v9.697h11.31v6.125l1.853-1.85 1.143 1.141-3.803 3.802-3.803-3.802 1.142-1.14 1.853 1.85v-4.512h-9.695v9.695h-8.079v4.848h1.391l.66 1.981 1.87-.933 3.11 3.109-.935 1.868 1.983.663v1.39h9.695v-8.078H39.69V20.3H51v6.465zM19.827 5.758h2.09v-2.09zM18.685 20.3h14.541V2.527h-9.694v4.846h-4.847zM2.527 25.146h8.079v-3.229h-8.08zm4.04 16.159a1.617 1.617 0 000 3.233 1.617 1.617 0 000-3.233zm7.27 7.271a.81.81 0 00-.808-.808.81.81 0 000 1.616.808.808 0 00.808-.808zm19.39-13.959l-1.853-.62-.136-.352a7.366 7.366 0 00-.126-.31l-.156-.348.873-1.748-1.462-1.462-1.746.874-.35-.155c-.1-.045-.2-.087-.303-.123l-.36-.138-.619-1.857h-2.067l-.618 1.857-.36.136c-.103.038-.204.08-.303.124l-.35.155-1.746-.873-1.462 1.462.873 1.748-.156.349c-.045.1-.085.204-.126.307l-.136.355-1.853.619v2.067l1.852.617.137.357c.04.104.08.205.125.306l.157.35-.874 1.748 1.462 1.46 1.746-.875.35.159c.1.045.2.083.303.123l.36.136.619 1.856h2.067l.619-1.856.36-.136c.102-.04.203-.078.302-.123l.35-.159 1.747.875 1.461-1.46-.873-1.747.156-.351c.045-.1.085-.202.126-.306l.136-.357 1.853-.617zm6.463 13.96a.81.81 0 00-.808-.81.81.81 0 000 1.617.808.808 0 00.808-.808zm5.655-7.272a1.617 1.617 0 000 3.233 1.617 1.617 0 000-3.233zm-4.04-16.159h8.08v-3.229h-8.08z"/></svg>