<svg xmlns="http://www.w3.org/2000/svg" width="51" height="51"><path fill="#ff2a6d" d="M35.086 36.281a5.76 5.76 0 01-5.75 5.756 5.76 5.76 0 01-5.752-5.756 5.76 5.76 0 015.751-5.755 5.76 5.76 0 015.751 5.755zm-1.643 0a4.114 4.114 0 00-4.108-4.11 4.114 4.114 0 00-4.108 4.11 4.114 4.114 0 004.108 4.111 4.114 4.114 0 004.108-4.11zm11.502-14.8a5.76 5.76 0 01-5.751 5.756 5.76 5.76 0 01-5.751-5.756 5.76 5.76 0 015.75-5.755 5.76 5.76 0 015.752 5.755zm-1.643 0a4.114 4.114 0 00-4.108-4.11 4.114 4.114 0 00-4.108 4.11 4.114 4.114 0 004.108 4.111 4.114 4.114 0 004.108-4.11zM16.19 19.837a5.76 5.76 0 01-5.75 5.755 5.76 5.76 0 01-5.751-5.755 5.76 5.76 0 015.75-5.756 5.76 5.76 0 015.751 5.756zm-1.643 0a4.114 4.114 0 00-4.108-4.111 4.114 4.114 0 00-4.107 4.11 4.114 4.114 0 004.107 4.112 4.114 4.114 0 004.108-4.111zm32.38 17.266l3.528 3.53-1.162 1.163-3.527-3.53-3.527 3.53-1.161-1.163 3.527-3.53-3.527-3.53 1.161-1.162 3.527 3.53 3.527-3.53 1.162 1.163zM5.85 5.037l3.527 3.53-1.162 1.162L4.69 6.2 1.162 9.73 0 8.567l3.527-3.53L0 1.507 1.162.344l3.527 3.53L8.215.344l1.162 1.163zm37.792 4.11l3.527 3.53-1.162 1.163-3.527-3.53-3.527 3.53-1.162-1.162 3.527-3.53-3.527-3.53 1.162-1.162 3.527 3.53 3.527-3.53 1.162 1.162zM29.789 15.64l-2.704-1.353c.736 1.435.776 2.92.724 4.061-.162 3.513-1.413 7.05-3.519 9.959-.448.618-.981 1.178-1.534 1.744-1.668 1.708-3.786 2.914-5.834 4.081-2.839 1.617-5.513 3.163-6.989 5.892a5.745 5.745 0 012.15 4.48 5.76 5.76 0 01-5.751 5.756A5.76 5.76 0 01.58 44.503a5.76 5.76 0 015.75-5.755c.776 0 1.516.156 2.193.436 1.705-3.106 4.683-4.83 7.585-6.483 2.04-1.16 3.965-2.258 5.472-3.8.508-.521.996-1.033 1.379-1.56 1.92-2.652 3.06-5.873 3.207-9.07.067-1.436-.105-2.423-.573-3.3-.06-.11-.13-.25-.209-.407l-1.021 3.067-1.558-.52 1.643-4.934a.82.82 0 011.146-.475l4.93 2.467zM6.332 40.392a4.114 4.114 0 00-4.108 4.111 4.114 4.114 0 004.108 4.112 4.114 4.114 0 004.107-4.112 4.114 4.114 0 00-4.107-4.11zm14.17-38.77l-1.389.878c-.34-.54-.642-.987-.874-1.297l1.312-.988c.263.35.584.823.952 1.407zm4.674 8.883l-1.538.575a21.238 21.238 0 00-.624-1.454l1.489-.695c.288.62.515 1.15.673 1.574zm-2.978-6.01l-1.432.804a81.61 81.61 0 00-.81-1.412l1.414-.836c.271.46.55.947.828 1.443zm1.569 2.934l-1.465.745a90.736 90.736 0 00-.754-1.446l1.449-.774c.268.5.527.996.77 1.475z"/></svg>