<svg xmlns="http://www.w3.org/2000/svg" width="50" height="50"><path fill="#ff2a6d" d="M43.696 30.07a44.239 44.239 0 011.82 12.548v6.538a.843.843 0 01-.844.843h-4.214a.843.843 0 01-.843-.843v-2.353L38.79 45.8c-.245-.344-.462-.7-.662-1.061l.119 4.394a.845.845 0 01-.843.866H11.466a.843.843 0 01-.842-.876l.158-4.112c-.225.355-.465.702-.735 1.033l-.775.799v2.312a.843.843 0 01-.843.844H4.215a.843.843 0 01-.843-.844v-6.537c0-4.243.61-8.465 1.815-12.548l5.14-17.425a.846.846 0 01.352-.47l4.248-2.745c-.422-.852-.463-1.358-.463-1.514 0-3.89 4.554-7.056 10.152-7.056 5.597 0 10.15 3.165 10.15 7.056 0 .167-.049.731-.552 1.687l4.003 2.637a.84.84 0 01.345.465zM7.586 48.311v-.905H5.057v.905zm4.282-31.538l.03-.796a3.212 3.212 0 00-.33-1.577L6.802 30.547a42.654 42.654 0 00-1.746 12.071v3.102h2.955l.778-.798a8.712 8.712 0 001.927-5.047zM32.37 48.31a10.5 10.5 0 00-1.062-3.764l-1.087-2.202H18.666l-1.088 2.202a10.508 10.508 0 00-1.062 3.764zm1.688 0h2.479l-.87-32.3v-.06l-.08-1.706a.845.845 0 01.26-.651l.556-.53-3.1-2.041a20.001 20.001 0 01-1.886 2.148.84.84 0 01-1.192 0 .844.844 0 010-1.193c2.704-2.707 2.856-4.087 2.857-4.1 0-2.923-3.798-5.331-8.466-5.331-4.668 0-8.466 2.408-8.466 5.368.003.002.177 1.38 2.856 4.063a.844.844 0 01-1.192 1.193c-.878-.88-1.52-1.645-2-2.306l-3.132 2.024.74.705c.177.17.272.408.26.653l-.13 2.6-1.21 31.464h2.483c.114-1.535.52-3.052 1.242-4.512l1.32-2.672a.843.843 0 01.755-.47h12.602c.32 0 .614.182.756.47l1.32 2.672a12.15 12.15 0 011.238 4.512zm9.771 0v-.904h-2.528v.905zm0-2.591v-3.102c0-4.081-.589-8.142-1.75-12.07l-4.603-15.571c-.083.305-.134.62-.122.941l1.157 24.215a8.731 8.731 0 001.615 4.641l.78.946zm4.586-39.705a.84.84 0 01-1.192 0L46.2 4.99a.844.844 0 011.192-1.193l1.024 1.025c.33.33.33.863 0 1.193zm-5.8-4.613A.844.844 0 0143.807.209l1.024 1.025a.844.844 0 01-1.192 1.193zm4.18 1.272a.844.844 0 01-.596-1.44L47.223.209a.842.842 0 111.192 1.193L47.39 2.427a.84.84 0 01-.596.247zm-4.18 3.341a.844.844 0 010-1.193l1.024-1.025A.842.842 0 1144.83 4.99l-1.023 1.025a.84.84 0 01-1.192 0zM1.665 1.002a.864.864 0 111.728 0 .864.864 0 01-1.728 0zM49.75 15.346a.864.864 0 11-1.728 0 .864.864 0 011.728 0zM2.53 13.658A2.533 2.533 0 010 11.128a2.533 2.533 0 012.529-2.532 2.533 2.533 0 012.528 2.531 2.533 2.533 0 01-2.528 2.531zm.842-2.53a.844.844 0 00-.842-.845.844.844 0 000 1.688.844.844 0 00.842-.844zm16.015 9.28v3.375a.843.843 0 01-.843.844h-3.371a.843.843 0 01-.843-.844v-3.375c0-.466.377-.844.843-.844h3.371c.466 0 .843.378.843.844zm-1.686.844h-1.685v1.687H17.7zm16.858-.844v3.375a.843.843 0 01-.843.844h-3.372a.843.843 0 01-.843-.844v-3.375c0-.466.378-.844.843-.844h3.372c.465 0 .843.378.843.844zm-1.686.844h-1.686v1.687h1.686zm-13.486 13.5v3.374a.843.843 0 01-.843.844h-3.371a.843.843 0 01-.843-.844v-3.375c0-.466.377-.843.843-.843h3.371c.466 0 .843.377.843.843zm-1.686.843h-1.685v1.688H17.7zm16.858-.844v3.375a.843.843 0 01-.843.844h-3.372a.843.843 0 01-.843-.844v-3.375c0-.466.378-.843.843-.843h3.372c.465 0 .843.377.843.843zm-1.686.844h-1.686v1.688h1.686zm-9.272-13.5a.843.843 0 01-.842.844h-1.686a.843.843 0 010-1.687h1.686c.465 0 .842.378.842.844zm5.058 0a.843.843 0 01-.843.844H26.13a.843.843 0 010-1.687h1.686c.465 0 .843.378.843.844zM23.6 36.44a.843.843 0 01-.842.844h-1.686a.843.843 0 010-1.688h1.686c.465 0 .842.378.842.844zm5.058 0a.843.843 0 01-.843.844h-1.686a.843.843 0 010-1.688h1.686c.465 0 .843.378.843.844zm2.528-8.437v-1.688a.843.843 0 111.686 0v1.688a.843.843 0 11-1.686 0zm0 2.53a.843.843 0 111.686 0v1.688a.843.843 0 11-1.686 0zm-15.171-2.53v-1.688a.843.843 0 111.685 0v1.688a.843.843 0 11-1.685 0zm0 2.53a.843.843 0 111.685 0v1.688a.843.843 0 11-1.685 0zm10.114-16.21a2.24 2.24 0 01-3.371-.4v4.799a.843.843 0 11-1.686 0v-6.75a.82.82 0 01.115-.4l-2.845-1.899a2.057 2.057 0 01-.908-1.514c-.06-.61.15-1.209.578-1.646 1.246-1.372 3.45-2.207 6.05-2.293 2.911-.101 5.573.752 7.133 2.267a2.064 2.064 0 01-.306 3.186l-2.848 1.901-.235.353c0 .016.009.029.009.045v5.062a.843.843 0 11-1.686 0zm-1.513-1.099c.09 0 .316-.024.467-.25l1.65-2.476a.846.846 0 01.233-.234l2.988-1.995c.13-.086.16-.21.166-.276a.372.372 0 00-.108-.304C28.866 6.574 26.775 5.9 24.498 5.9c-.126 0-.253.002-.38.006-2.123.07-3.942.725-4.868 1.751a.597.597 0 01-.03.031.372.372 0 00-.108.304c.006.066.036.19.165.276l2.989 1.994a.85.85 0 01.234.234l1.65 2.478c.15.225.375.25.465.25z"/></svg>