<svg xmlns="http://www.w3.org/2000/svg" width="16" height="16"><path fill="#fff" d="M14.067 12.491c.53.533.526 1.186-.007 1.726-.36.363-.742.71-1.081 1.09-.496.555-1.115.735-1.828.695-1.035-.056-1.986-.4-2.905-.846A15.841 15.841 0 013 11.048C1.919 9.762 1.027 8.36.44 6.781.155 6.018-.048 5.235.015 4.405c.04-.51.23-.946.606-1.302.406-.387.789-.79 1.188-1.183.52-.513 1.172-.513 1.694-.003.323.316.64.64.959.96.31.312.619.619.928.932.546.55.546 1.19.004 1.736-.39.393-.776.786-1.172 1.17-.103.102-.113.186-.06.312.263.627.64 1.183 1.062 1.703.852 1.046 1.814 1.975 2.962 2.698.246.154.52.267.776.407.13.073.22.05.326-.06.39-.4.785-.793 1.181-1.186.52-.517 1.172-.517 1.694 0 .636.633 1.272 1.266 1.904 1.902zm-3.724-6.85A4.235 4.235 0 007.92 4.432l.173-1.236A5.457 5.457 0 0111.22 4.76a5.497 5.497 0 011.535 2.965l-1.228.21a4.24 4.24 0 00-1.185-2.293zm5.654 1.87l-1.228.21a7.856 7.856 0 00-2.2-4.248 7.85 7.85 0 00-4.486-2.24l.173-1.235a9.052 9.052 0 015.192 2.592 9.135 9.135 0 012.55 4.92z"/></svg>