<svg xmlns="http://www.w3.org/2000/svg" width="49" height="51"><path fill="#1c1c1c" d="M47.84 50.111a2.618 2.618 0 01-1.838.742 2.628 2.628 0 01-1.91-.813l-12.07-12.557a20.104 20.104 0 01-11.644 3.678c-11.206 0-20.323-9.12-20.323-20.33C.055 9.622 9.172.503 20.378.503S40.7 9.621 40.7 20.832a20.27 20.27 0 01-4.768 13.069l11.98 12.462a2.654 2.654 0 01-.074 3.748zM5.355 20.831c0 8.287 6.739 15.025 15.022 15.025 8.283 0 15.021-6.738 15.021-15.024 0-8.286-6.738-15.026-15.021-15.026-8.283 0-15.022 6.74-15.022 15.026z"/></svg>