<svg xmlns="http://www.w3.org/2000/svg" width="26" height="26"><path fill="#e5de05" d="M13 0c7.18 0 13 5.822 13 13s-5.82 13.003-13 13.003S0 20.178 0 13 5.82 0 13 0z"/><path fill="#807b03" d="M16.859 16.264c.33.327.328.74-.004 1.077-.225.227-.464.441-.676.678-.31.348-.696.462-1.14.439-.647-.039-1.241-.253-1.815-.53a9.875 9.875 0 01-3.275-2.565c-.675-.803-1.232-1.677-1.598-2.666-.179-.474-.305-.964-.266-1.483.025-.32.143-.59.378-.814.254-.24.493-.492.742-.742.324-.319.732-.319 1.058 0 .201.201.399.401.598.598.194.2.387.39.58.586.34.344.34.744.002 1.084-.243.244-.484.493-.731.728-.065.067-.07.117-.038.196.164.393.4.741.663 1.062.532.654 1.133 1.236 1.85 1.69.154.093.324.163.484.25.08.049.137.033.203-.039.244-.244.491-.494.738-.738.324-.322.732-.322 1.058 0 .397.395.794.789 1.189 1.189zm-2.326-4.278a2.654 2.654 0 00-1.513-.755l.109-.77a3.399 3.399 0 011.953.972c.505.51.837 1.146.958 1.854l-.767.13a2.654 2.654 0 00-.74-1.43zm3.53 1.166l-.766.132a4.907 4.907 0 00-1.373-2.653 4.906 4.906 0 00-2.802-1.397l.108-.774a5.657 5.657 0 013.242 1.62 5.71 5.71 0 011.592 3.072z"/></svg>