<svg xmlns="http://www.w3.org/2000/svg" width="19" height="21"><path fill="#fff" d="M18.548 12.226c-.562 4.808-4.039 5.273-4.653 5.48-.265.088-2.602.7-5.645.433-1.82 2.192-2.084 2.567-2.669 2.374-.511-.162-.48-.97-.48-.97l.003-1.992H5.1C.655 16.246.717 11.434.77 8.867c.052-2.565.529-4.64 1.883-6.051 3.017-2.89 11.531-2.53 14.052-.11v.001c1.562 1.418 2.428 4.551 1.843 9.519zm-9.998 4.51c2.58.173 4.635-.357 4.856-.432.518-.174 3.335-.43 3.813-4.445-.005-.2.823-6.072-1.502-8.15-1.902-1.803-9.367-2.362-12.013.14-1.147 1.182-1.536 2.937-1.577 5.08-.04 2.146-.263 6.24 3.506 7.328 0 0-.015 3.044-.015 3.31-.003.404.212.424.408.22.599-.63 2.524-3.051 2.524-3.051zM9.616 4.32c2.728.019 4.923 1.984 4.949 5.373.005.333-.477.335-.477.005-.022-3.146-2.032-4.862-4.472-4.88-.315-.004-.315-.498 0-.498zm3.21 4.856c.037-1.636-.944-2.92-2.807-3.06-.313-.023-.28-.523.034-.5 2.148.163 3.29 1.702 3.25 3.571-.004.333-.485.317-.477-.01zm-.515 2.126c.544.321 1.237.82 1.696 1.27.259.22.318.558.14.912v.005c-.4.735-1.147 1.546-1.917 1.286l-.007-.011c-.781-.228-2.621-1.216-3.784-2.18-2.474-2.04-3.25-4.74-3.672-5.588-.248-.803.526-1.582 1.233-2h.007c.34-.186.667-.123.884.15.207.294.613.673 1.217 1.774.227.422.086.85-.136 1.027l-.445.372c-.225.187-.195.539-.195.539s.659 2.599 3.121 3.256c0 0 .337.03.518-.207l.355-.46c.17-.234.581-.38.985-.145zm-1.922-3.848c-.317-.018-.288-.518.026-.497 1.033.058 1.607.674 1.659 1.784.015.333-.463.356-.478.024-.04-.85-.422-1.264-1.207-1.31z"/></svg>