<svg xmlns="http://www.w3.org/2000/svg" width="28" height="16"><path fill="#fff" d="M26.721 12.515c-.606-.726-1.296-1.376-1.963-2.005a65.368 65.368 0 01-.72-.685c-.678-.661-.703-.909-.165-1.66.371-.517.766-1.036 1.147-1.537.346-.454.703-.925 1.046-1.396l.07-.097c.655-.903 1.333-1.836 1.693-2.962.094-.297.192-.734-.033-1.1-.224-.365-.66-.477-.968-.529a2.671 2.671 0 00-.445-.029l-4.29-.003h-.035c-.648 0-1.085.304-1.336.93a25.31 25.31 0 01-.801 1.842c-.597 1.206-1.354 2.596-2.45 3.755l-.047.05c-.13.138-.276.295-.383.295a.187.187 0 01-.055-.01c-.227-.088-.379-.635-.372-.89v-.01l-.003-4.938a.38.38 0 00-.003-.051c-.11-.803-.351-1.303-1.265-1.48a.363.363 0 00-.073-.008h-4.46c-.727 0-1.128.294-1.504.734-.102.118-.313.363-.208.66.106.302.451.366.564.387.558.106.872.446.961 1.04.156 1.032.175 2.132.06 3.465-.031.37-.095.656-.199.9-.024.058-.11.243-.197.244-.028 0-.108-.011-.254-.112-.346-.236-.6-.573-.895-.989-1.004-1.413-1.846-2.97-2.576-4.76-.27-.66-.776-1.028-1.424-1.04C4.426.517 3.781.512 3.165.512A77.581 77.581 0 001.26.53C.74.539.38.694.19.993c-.19.297-.18.69.035 1.164 1.716 3.8 3.272 6.563 5.046 8.96 1.242 1.676 2.488 2.836 3.922 3.651 1.51.86 3.201 1.279 5.172 1.279.223 0 .454-.006.687-.017 1.145-.055 1.57-.468 1.623-1.578.026-.568.088-1.163.369-1.67.176-.32.341-.32.395-.32.105 0 .234.047.373.137.25.162.463.38.638.569.165.18.328.362.491.544.353.393.717.8 1.097 1.185.833.843 1.75 1.214 2.804 1.134h3.933l.025-.001c.392-.026.731-.242.931-.594.248-.436.243-.992-.013-1.487-.29-.56-.667-1.04-.998-1.434z"/></svg>