<svg xmlns="http://www.w3.org/2000/svg" width="22" height="13"><path fill="#fff" d="M20.28 9.645c-.444-.53-.95-1.008-1.44-1.472-.173-.16-.353-.332-.526-.5-.498-.484-.516-.666-.122-1.216.272-.38.561-.76.841-1.127.254-.333.516-.678.767-1.024l.052-.075c.48-.659.977-1.348 1.241-2.17.069-.219.141-.538-.024-.806-.165-.267-.484-.349-.71-.386a1.719 1.719 0 00-.326-.024h-3.172c-.475 0-.796.22-.98.678a18.64 18.64 0 01-.587 1.355c-.438.884-.993 1.9-1.797 2.753l-.034.033c-.095.107-.203.218-.281.218a.199.199 0 01-.04-.004c-.167-.065-.279-.47-.274-.654v-.01l-.002-3.62c0-.012 0-.025-.002-.037-.08-.587-.258-.956-.927-1.088l-.054-.001H8.612c-.533 0-.827.21-1.103.535-.074.089-.23.269-.153.487.078.22.331.267.414.286.41.071.64.323.705.759.114.757.128 1.562.044 2.542a2.18 2.18 0 01-.146.66c-.017.04-.08.178-.144.178-.02 0-.08-.009-.187-.08-.254-.176-.44-.424-.656-.728-.736-1.034-1.354-2.179-1.89-3.492-.198-.482-.568-.752-1.043-.762A88.985 88.985 0 003.006.841c-.493 0-.95.005-1.397.015-.382.007-.647.12-.786.34-.14.218-.13.505.027.853 1.259 2.79 2.4 4.813 3.7 6.57.912 1.23 1.826 2.082 2.877 2.679 1.107.63 2.348.94 3.793.94.163 0 .333-.005.504-.013.84-.043 1.15-.343 1.19-1.158.02-.417.065-.854.27-1.224.13-.235.25-.235.29-.235a.54.54 0 01.274.1c.183.119.34.275.468.418.12.13.24.264.36.398.258.288.525.587.804.87.611.62 1.284.892 2.057.831h2.902a.847.847 0 00.683-.437c.182-.32.178-.727-.01-1.089-.213-.412-.49-.763-.731-1.054z" opacity=".5"/></svg>