<svg xmlns="http://www.w3.org/2000/svg" width="21" height="20"><path fill="#fff" d="M20.165 9.922c-.002 5.35-4.375 9.702-9.747 9.702h-.004a9.796 9.796 0 01-4.658-1.18L.59 19.793l1.383-5.028a9.655 9.655 0 01-1.3-4.851C.672 4.563 5.045.212 10.417.212a9.696 9.696 0 016.895 2.847 9.618 9.618 0 012.852 6.863zm-1.646 0a7.998 7.998 0 00-2.37-5.706A8.067 8.067 0 0010.42 1.85c-4.468 0-8.102 3.617-8.104 8.063 0 1.524.427 3.008 1.238 4.292l.193.305-.818 2.976 3.066-.8.295.174a8.112 8.112 0 004.124 1.125h.003c4.465 0 8.1-3.619 8.101-8.064zm-3.19 2.306c.06.102.06.588-.143 1.154-.203.566-1.176 1.082-1.643 1.153-.42.062-.95.088-1.534-.096a13.59 13.59 0 01-1.389-.512c-2.443-1.05-4.038-3.499-4.16-3.66-.122-.162-.994-1.315-.994-2.507 0-1.195.629-1.78.852-2.025a.898.898 0 01.65-.302c.162 0 .324.001.466.009.15.007.35-.056.548.416.203.485.69 1.679.75 1.8.062.12.102.263.021.425-.081.162-.345.504-.609.83-.108.133-.248.25-.107.494.143.243.631 1.036 1.355 1.68.93.825 1.715 1.081 1.959 1.203.243.121.385.101.527-.062.143-.16.61-.706.772-.95.162-.242.324-.201.547-.12.224.08 1.421.666 1.665.788.243.122.406.18.466.282z"/></svg>