<svg xmlns="http://www.w3.org/2000/svg" width="22" height="15"><path fill="#fff" d="M20.624 2.373c.295 1.595.448 3.249.448 4.936v.381c0 1.685-.153 3.337-.422 4.77l-.004.018a2.574 2.574 0 01-1.76 1.771c-1.597.427-7.939.427-7.939.427s-6.36 0-7.939-.427l-.018-.004a2.571 2.571 0 01-1.746-1.785l.026.166C.65 9.323.654 5.622 1.244 2.537l.004-.018A2.559 2.559 0 013.008.75C4.603.314 10.945.318 10.945.318s6.359 0 7.939.433l.018.004c.84.24 1.501.911 1.746 1.782zM14.21 7.507L8.918 4.42v6.16z" opacity=".5"/></svg>